<svg width="1280" height="337" viewBox="0 0 1280 337" fill="none" xmlns="http://www.w3.org/2000/svg">
    <path d="M187.265 204.121C200.778 204.121 211.731 215.075 211.731 228.587C211.731 242.099 200.778 253.053 187.265 253.053C173.753 253.053 162.8 242.099 162.8 228.587C162.8 215.075 173.753 204.121 187.265 204.121Z" stroke="black" stroke-width="12"/>
    <path d="M214.529 148.09L253.044 93.0863C260.794 82.0181 276.049 79.328 287.118 87.0781C298.186 94.8283 300.876 110.084 293.126 121.152L254.612 176.156C246.862 187.225 231.606 189.915 220.538 182.165C209.469 174.414 206.779 159.159 214.529 148.09Z" stroke="black" stroke-width="12"/>
    <path d="M343.573 159.493L382.087 214.497C389.837 225.566 387.147 240.821 376.079 248.572C365.01 256.322 349.755 253.632 342.005 242.563L303.49 187.559C295.74 176.491 298.43 161.235 309.499 153.485C320.567 145.735 335.823 148.425 343.573 159.493Z" stroke="black" stroke-width="12"/>
    <mask id="mask0_101_153" style="mask-type:alpha" maskUnits="userSpaceOnUse" x="156" y="76" width="237" height="183">
        <path d="M187.078 258.909C203.931 258.909 217.593 245.247 217.593 228.394C217.593 211.541 203.931 197.878 187.078 197.878C170.225 197.878 156.562 211.541 156.562 228.394C156.562 245.247 170.225 258.909 187.078 258.909Z" fill="white"/>
        <path d="M248.039 89.2269L209.463 144.319C199.796 158.125 203.151 177.152 216.957 186.819C230.762 196.485 249.79 193.13 259.456 179.325L298.032 124.232C307.699 110.427 304.344 91.3996 290.538 81.7331C276.733 72.0665 257.706 75.4216 248.039 89.2269Z" fill="white"/>
        <path d="M387.137 210.833L348.561 155.741C338.895 141.935 319.867 138.58 306.062 148.247C292.257 157.913 288.901 176.941 298.568 190.746L337.144 245.839C346.811 259.644 365.838 262.999 379.644 253.333C393.449 243.666 396.804 224.638 387.137 210.833Z" fill="white"/>
    </mask>
    <g mask="url(#mask0_101_153)">
        <path d="M429.978 14.1855H117.503V329.102H429.978V14.1855Z" fill="url(#paint0_linear_101_153)"/>
    </g>
    <g filter="url(#filter0_d_101_153)">
        <path d="M501.304 244L524.856 154.4H554.296L577.848 244H560.44L555.576 224.288H523.576L518.712 244H501.304ZM527.544 208.672H551.608L540.728 165.024H538.424L527.544 208.672ZM589.085 244V180.512H604.957V187.424H607.261C608.37 185.291 610.205 183.456 612.765 181.92C615.325 180.299 618.696 179.488 622.877 179.488C627.4 179.488 631.026 180.384 633.757 182.176C636.488 183.883 638.578 186.144 640.029 188.96H642.333C643.784 186.229 645.832 183.968 648.477 182.176C651.122 180.384 654.877 179.488 659.741 179.488C663.666 179.488 667.208 180.341 670.365 182.048C673.608 183.669 676.168 186.187 678.045 189.6C680.008 192.928 680.989 197.152 680.989 202.272V244H664.861V203.424C664.861 199.925 663.965 197.323 662.173 195.616C660.381 193.824 657.864 192.928 654.621 192.928C650.952 192.928 648.093 194.123 646.045 196.512C644.082 198.816 643.101 202.144 643.101 206.496V244H626.973V203.424C626.973 199.925 626.077 197.323 624.285 195.616C622.493 193.824 619.976 192.928 616.733 192.928C613.064 192.928 610.205 194.123 608.157 196.512C606.194 198.816 605.213 202.144 605.213 206.496V244H589.085ZM727.263 245.792C720.948 245.792 715.359 244.469 710.495 241.824C705.716 239.093 701.962 235.296 699.231 230.432C696.586 225.483 695.263 219.68 695.263 213.024V211.488C695.263 204.832 696.586 199.072 699.231 194.208C701.876 189.259 705.588 185.461 710.367 182.816C715.146 180.085 720.692 178.72 727.007 178.72C733.236 178.72 738.655 180.128 743.263 182.944C747.871 185.675 751.455 189.515 754.015 194.464C756.575 199.328 757.855 205.003 757.855 211.488V216.992H711.647C711.818 221.344 713.439 224.885 716.511 227.616C719.583 230.347 723.338 231.712 727.775 231.712C732.298 231.712 735.626 230.731 737.759 228.768C739.892 226.805 741.514 224.629 742.623 222.24L755.807 229.152C754.612 231.371 752.863 233.803 750.559 236.448C748.34 239.008 745.354 241.227 741.599 243.104C737.844 244.896 733.066 245.792 727.263 245.792ZM711.775 204.96H741.471C741.13 201.291 739.636 198.347 736.991 196.128C734.431 193.909 731.06 192.8 726.879 192.8C722.527 192.8 719.071 193.909 716.511 196.128C713.951 198.347 712.372 201.291 711.775 204.96ZM794.405 244C790.224 244 786.81 242.72 784.165 240.16C781.605 237.515 780.325 234.016 780.325 229.664V193.824H764.453V180.512H780.325V160.8H796.453V180.512H813.861V193.824H796.453V226.848C796.453 229.408 797.648 230.688 800.037 230.688H812.325V244H794.405ZM828.46 244V154.4H844.588V188.32H846.892C847.575 186.955 848.641 185.589 850.092 184.224C851.543 182.859 853.463 181.749 855.852 180.896C858.327 179.957 861.441 179.488 865.196 179.488C870.145 179.488 874.455 180.64 878.124 182.944C881.879 185.163 884.78 188.277 886.828 192.288C888.876 196.213 889.9 200.821 889.9 206.112V244H873.772V207.392C873.772 202.613 872.577 199.029 870.188 196.64C867.884 194.251 864.556 193.056 860.204 193.056C855.255 193.056 851.415 194.72 848.684 198.048C845.953 201.291 844.588 205.856 844.588 211.744V244H828.46ZM913.247 269.6V255.52H947.807C950.196 255.52 951.391 254.24 951.391 251.68V235.68H949.087C948.404 237.131 947.338 238.581 945.887 240.032C944.436 241.483 942.474 242.677 939.999 243.616C937.524 244.555 934.367 245.024 930.527 245.024C925.578 245.024 921.226 243.915 917.471 241.696C913.802 239.392 910.943 236.235 908.895 232.224C906.847 228.213 905.823 223.605 905.823 218.4V180.512H921.951V217.12C921.951 221.899 923.103 225.483 925.407 227.872C927.796 230.261 931.167 231.456 935.519 231.456C940.468 231.456 944.308 229.835 947.039 226.592C949.77 223.264 951.135 218.656 951.135 212.768V180.512H967.263V255.264C967.263 259.616 965.983 263.072 963.423 265.632C960.863 268.277 957.45 269.6 953.183 269.6H913.247ZM1011.58 245.792C1003.3 245.792 996.517 244 991.226 240.416C985.935 236.832 982.735 231.712 981.626 225.056L996.474 221.216C997.071 224.203 998.053 226.549 999.418 228.256C1000.87 229.963 1002.62 231.2 1004.67 231.968C1006.8 232.651 1009.1 232.992 1011.58 232.992C1015.33 232.992 1018.11 232.352 1019.9 231.072C1021.69 229.707 1022.59 228.043 1022.59 226.08C1022.59 224.117 1021.73 222.624 1020.03 221.6C1018.32 220.491 1015.59 219.595 1011.83 218.912L1008.25 218.272C1003.81 217.419 999.759 216.267 996.09 214.816C992.421 213.28 989.477 211.189 987.258 208.544C985.039 205.899 983.93 202.485 983.93 198.304C983.93 191.989 986.234 187.168 990.842 183.84C995.45 180.427 1001.51 178.72 1009.02 178.72C1016.1 178.72 1021.99 180.299 1026.68 183.456C1031.38 186.613 1034.45 190.752 1035.9 195.872L1020.92 200.48C1020.24 197.237 1018.83 194.933 1016.7 193.568C1014.65 192.203 1012.09 191.52 1009.02 191.52C1005.95 191.52 1003.6 192.075 1001.98 193.184C1000.36 194.208 999.546 195.659 999.546 197.536C999.546 199.584 1000.4 201.12 1002.11 202.144C1003.81 203.083 1006.12 203.808 1009.02 204.32L1012.6 204.96C1017.38 205.813 1021.69 206.965 1025.53 208.416C1029.46 209.781 1032.53 211.787 1034.75 214.432C1037.05 216.992 1038.2 220.491 1038.2 224.928C1038.2 231.584 1035.77 236.747 1030.91 240.416C1026.13 244 1019.68 245.792 1011.58 245.792ZM1075.41 244C1071.22 244 1067.81 242.72 1065.17 240.16C1062.61 237.515 1061.33 234.016 1061.33 229.664V193.824H1045.45V180.512H1061.33V160.8H1077.45V180.512H1094.86V193.824H1077.45V226.848C1077.45 229.408 1078.65 230.688 1081.04 230.688H1093.33V244H1075.41Z" fill="#B287DF"/>
    </g>
    <g filter="url(#filter1_d_101_153)">
        <path d="M506.808 119L500.92 74.2H509.304L513.656 113.112H514.808L520.44 74.2H535.032L540.664 113.112H541.816L546.168 74.2H554.552L548.664 119H534.072L528.312 79.192H527.16L521.4 119H506.808ZM575.069 119.896C571.912 119.896 569.117 119.235 566.685 117.912C564.296 116.547 562.418 114.648 561.053 112.216C559.73 109.741 559.069 106.84 559.069 103.512V102.744C559.069 99.416 559.73 96.536 561.053 94.104C562.376 91.6293 564.232 89.7307 566.621 88.408C569.01 87.0427 571.784 86.36 574.941 86.36C578.056 86.36 580.765 87.064 583.069 88.472C585.373 89.8373 587.165 91.7573 588.445 94.232C589.725 96.664 590.365 99.5013 590.365 102.744V105.496H567.261C567.346 107.672 568.157 109.443 569.693 110.808C571.229 112.173 573.106 112.856 575.325 112.856C577.586 112.856 579.25 112.365 580.317 111.384C581.384 110.403 582.194 109.315 582.749 108.12L589.341 111.576C588.744 112.685 587.869 113.901 586.717 115.224C585.608 116.504 584.114 117.613 582.237 118.552C580.36 119.448 577.97 119.896 575.069 119.896ZM567.325 99.48H582.173C582.002 97.6453 581.256 96.1733 579.933 95.064C578.653 93.9547 576.968 93.4 574.877 93.4C572.701 93.4 570.973 93.9547 569.693 95.064C568.413 96.1733 567.624 97.6453 567.325 99.48ZM597.543 119V74.2H605.607V119H597.543ZM629.455 119.896C626.383 119.896 623.588 119.256 621.071 117.976C618.596 116.696 616.633 114.84 615.183 112.408C613.732 109.976 613.007 107.032 613.007 103.576V102.68C613.007 99.224 613.732 96.28 615.183 93.848C616.633 91.416 618.596 89.56 621.071 88.28C623.588 87 626.383 86.36 629.455 86.36C632.484 86.36 635.087 86.8933 637.263 87.96C639.439 89.0267 641.188 90.4987 642.511 92.376C643.876 94.2107 644.772 96.3013 645.199 98.648L637.391 100.312C637.22 99.032 636.836 97.88 636.239 96.856C635.641 95.832 634.788 95.0213 633.679 94.424C632.612 93.8267 631.268 93.528 629.647 93.528C628.025 93.528 626.553 93.8907 625.231 94.616C623.951 95.2987 622.927 96.344 622.159 97.752C621.433 99.1173 621.071 100.803 621.071 102.808V103.448C621.071 105.453 621.433 107.16 622.159 108.568C622.927 109.933 623.951 110.979 625.231 111.704C626.553 112.387 628.025 112.728 629.647 112.728C632.079 112.728 633.913 112.109 635.151 110.872C636.431 109.592 637.241 107.928 637.583 105.88L645.391 107.736C644.836 109.997 643.876 112.067 642.511 113.944C641.188 115.779 639.439 117.229 637.263 118.296C635.087 119.363 632.484 119.896 629.455 119.896ZM667.147 119.896C663.989 119.896 661.152 119.256 658.635 117.976C656.117 116.696 654.133 114.84 652.683 112.408C651.232 109.976 650.507 107.053 650.507 103.64V102.616C650.507 99.2027 651.232 96.28 652.683 93.848C654.133 91.416 656.117 89.56 658.635 88.28C661.152 87 663.989 86.36 667.147 86.36C670.304 86.36 673.141 87 675.659 88.28C678.176 89.56 680.16 91.416 681.611 93.848C683.061 96.28 683.787 99.2027 683.787 102.616V103.64C683.787 107.053 683.061 109.976 681.611 112.408C680.16 114.84 678.176 116.696 675.659 117.976C673.141 119.256 670.304 119.896 667.147 119.896ZM667.147 112.728C669.621 112.728 671.669 111.939 673.291 110.36C674.912 108.739 675.723 106.435 675.723 103.448V102.808C675.723 99.8213 674.912 97.5387 673.291 95.96C671.712 94.3387 669.664 93.528 667.147 93.528C664.672 93.528 662.624 94.3387 661.003 95.96C659.381 97.5387 658.571 99.8213 658.571 102.808V103.448C658.571 106.435 659.381 108.739 661.003 110.36C662.624 111.939 664.672 112.728 667.147 112.728ZM691.23 119V87.256H699.166V90.712H700.318C700.873 89.6453 701.79 88.728 703.07 87.96C704.35 87.1493 706.035 86.744 708.126 86.744C710.387 86.744 712.201 87.192 713.566 88.088C714.931 88.9413 715.977 90.072 716.702 91.48H717.854C718.579 90.1147 719.603 88.984 720.926 88.088C722.249 87.192 724.126 86.744 726.558 86.744C728.521 86.744 730.291 87.1707 731.87 88.024C733.491 88.8347 734.771 90.0933 735.71 91.8C736.691 93.464 737.182 95.576 737.182 98.136V119H729.118V98.712C729.118 96.9627 728.67 95.6613 727.774 94.808C726.878 93.912 725.619 93.464 723.998 93.464C722.163 93.464 720.734 94.0613 719.71 95.256C718.729 96.408 718.238 98.072 718.238 100.248V119H710.174V98.712C710.174 96.9627 709.726 95.6613 708.83 94.808C707.934 93.912 706.675 93.464 705.054 93.464C703.219 93.464 701.79 94.0613 700.766 95.256C699.785 96.408 699.294 98.072 699.294 100.248V119H691.23ZM760.319 119.896C757.162 119.896 754.367 119.235 751.935 117.912C749.546 116.547 747.668 114.648 746.303 112.216C744.98 109.741 744.319 106.84 744.319 103.512V102.744C744.319 99.416 744.98 96.536 746.303 94.104C747.626 91.6293 749.482 89.7307 751.871 88.408C754.26 87.0427 757.034 86.36 760.191 86.36C763.306 86.36 766.015 87.064 768.319 88.472C770.623 89.8373 772.415 91.7573 773.695 94.232C774.975 96.664 775.615 99.5013 775.615 102.744V105.496H752.511C752.596 107.672 753.407 109.443 754.943 110.808C756.479 112.173 758.356 112.856 760.575 112.856C762.836 112.856 764.5 112.365 765.567 111.384C766.634 110.403 767.444 109.315 767.999 108.12L774.591 111.576C773.994 112.685 773.119 113.901 771.967 115.224C770.858 116.504 769.364 117.613 767.487 118.552C765.61 119.448 763.22 119.896 760.319 119.896ZM752.575 99.48H767.423C767.252 97.6453 766.506 96.1733 765.183 95.064C763.903 93.9547 762.218 93.4 760.127 93.4C757.951 93.4 756.223 93.9547 754.943 95.064C753.663 96.1733 752.874 97.6453 752.575 99.48ZM811.203 119C809.112 119 807.405 118.36 806.083 117.08C804.803 115.757 804.163 114.008 804.163 111.832V93.912H796.227V87.256H804.163V77.4H812.227V87.256H820.931V93.912H812.227V110.424C812.227 111.704 812.824 112.344 814.019 112.344H820.163V119H811.203ZM842.209 119.896C839.052 119.896 836.214 119.256 833.697 117.976C831.18 116.696 829.196 114.84 827.745 112.408C826.294 109.976 825.569 107.053 825.569 103.64V102.616C825.569 99.2027 826.294 96.28 827.745 93.848C829.196 91.416 831.18 89.56 833.697 88.28C836.214 87 839.052 86.36 842.209 86.36C845.366 86.36 848.204 87 850.721 88.28C853.238 89.56 855.222 91.416 856.673 93.848C858.124 96.28 858.849 99.2027 858.849 102.616V103.64C858.849 107.053 858.124 109.976 856.673 112.408C855.222 114.84 853.238 116.696 850.721 117.976C848.204 119.256 845.366 119.896 842.209 119.896ZM842.209 112.728C844.684 112.728 846.732 111.939 848.353 110.36C849.974 108.739 850.785 106.435 850.785 103.448V102.808C850.785 99.8213 849.974 97.5387 848.353 95.96C846.774 94.3387 844.726 93.528 842.209 93.528C839.734 93.528 837.686 94.3387 836.065 95.96C834.444 97.5387 833.633 99.8213 833.633 102.808V103.448C833.633 106.435 834.444 108.739 836.065 110.36C837.686 111.939 839.734 112.728 842.209 112.728Z" fill="#BFA3EA"/>
    </g>
    <defs>
        <filter id="filter0_d_101_153" x="494.504" y="151.6" width="607.157" height="128.8" filterUnits="userSpaceOnUse" color-interpolation-filters="sRGB">
            <feFlood flood-opacity="0" result="BackgroundImageFix"/>
            <feColorMatrix in="SourceAlpha" type="matrix" values="0 0 0 0 0 0 0 0 0 0 0 0 0 0 0 0 0 0 127 0" result="hardAlpha"/>
            <feOffset dy="4"/>
            <feGaussianBlur stdDeviation="3.4"/>
            <feComposite in2="hardAlpha" operator="out"/>
            <feColorMatrix type="matrix" values="0 0 0 0 0.654911 0 0 0 0 0.573718 0 0 0 0 0.97968 0 0 0 0.65 0"/>
            <feBlend mode="normal" in2="BackgroundImageFix" result="effect1_dropShadow_101_153"/>
            <feBlend mode="normal" in="SourceGraphic" in2="effect1_dropShadow_101_153" result="shape"/>
        </filter>
        <filter id="filter1_d_101_153" x="494.12" y="71.4002" width="371.529" height="59.2958" filterUnits="userSpaceOnUse" color-interpolation-filters="sRGB">
            <feFlood flood-opacity="0" result="BackgroundImageFix"/>
            <feColorMatrix in="SourceAlpha" type="matrix" values="0 0 0 0 0 0 0 0 0 0 0 0 0 0 0 0 0 0 127 0" result="hardAlpha"/>
            <feOffset dy="4"/>
            <feGaussianBlur stdDeviation="3.4"/>
            <feComposite in2="hardAlpha" operator="out"/>
            <feColorMatrix type="matrix" values="0 0 0 0 0.654911 0 0 0 0 0.573718 0 0 0 0 0.97968 0 0 0 0.65 0"/>
            <feBlend mode="normal" in2="BackgroundImageFix" result="effect1_dropShadow_101_153"/>
            <feBlend mode="normal" in="SourceGraphic" in2="effect1_dropShadow_101_153" result="shape"/>
        </filter>
        <linearGradient id="paint0_linear_101_153" x1="212.71" y1="294.925" x2="325.616" y2="100.849" gradientUnits="userSpaceOnUse">
            <stop stop-color="#B100EC"/>
            <stop offset="0.525922" stop-color="#F061F5"/>
            <stop offset="1" stop-color="#FF0000"/>
        </linearGradient>
    </defs>
</svg>
